<?xml version="1.0" standalone="no"?>
<!DOCTYPE svg PUBLIC "-//W3C//DTD SVG 20010904//EN"
 "http://www.w3.org/TR/2001/REC-SVG-20010904/DTD/svg10.dtd">
<svg version="1.0" xmlns="http://www.w3.org/2000/svg"
 width="3329.000000pt" height="3329.000000pt" viewBox="0 0 3329.000000 3329.000000"
 preserveAspectRatio="xMidYMid meet">
<metadata>
Created by potrace 1.11, written by Peter Selinger 2001-2013
</metadata>
<g transform="translate(0.000000,3329.000000) scale(0.100000,-0.100000)"
fill="#000000" stroke="none">
<path d="M22238 33043 c7 -3 16 -2 19 1 4 3 -2 6 -13 5 -11 0 -14 -3 -6 -6z"/>
<path d="M22358 33023 c7 -3 16 -2 19 1 4 3 -2 6 -13 5 -11 0 -14 -3 -6 -6z"/>
<path d="M22478 33003 c7 -3 16 -2 19 1 4 3 -2 6 -13 5 -11 0 -14 -3 -6 -6z"/>
<path d="M23268 32683 c7 -3 16 -2 19 1 4 3 -2 6 -13 5 -11 0 -14 -3 -6 -6z"/>
<path d="M16300 32653 c-14 -2 -95 -10 -180 -18 -180 -17 -338 -38 -407 -54
-80 -18 -145 -32 -205 -43 -35 -6 -55 -15 -51 -21 3 -5 2 -7 -4 -4 -10 6 -105
-15 -210 -47 -29 -9 -74 -22 -100 -30 -62 -18 -222 -74 -248 -86 -11 -5 -47
-19 -80 -31 -57 -20 -96 -37 -190 -79 -310 -138 -573 -277 -557 -295 4 -5 2
-5 -5 -1 -23 13 -407 -231 -668 -425 -322 -239 -579 -463 -901 -784 -132 -132
-267 -269 -300 -305 -32 -36 -79 -88 -105 -115 -58 -65 -257 -299 -334 -395
-33 -41 -71 -88 -85 -103 -14 -16 -25 -32 -24 -35 1 -4 -5 -11 -12 -17 -7 -5
-33 -37 -58 -70 -25 -33 -49 -64 -54 -70 -18 -23 -184 -248 -217 -295 -19 -28
-54 -76 -76 -108 -149 -210 -509 -771 -509 -792 0 -5 -4 -10 -8 -12 -8 -3
-192 -312 -192 -322 0 -2 -21 -39 -46 -82 -25 -43 -71 -125 -101 -183 -31 -58
-59 -110 -63 -116 -22 -29 -250 -485 -243 -485 4 0 3 -4 -3 -8 -10 -7 -37 -60
-132 -262 -22 -47 -62 -133 -90 -191 -27 -58 -53 -117 -57 -130 -4 -13 -11
-28 -15 -34 -7 -8 -37 -77 -116 -265 -9 -19 -19 -44 -24 -55 -5 -11 -21 -49
-35 -85 -15 -36 -33 -79 -41 -97 -26 -58 -74 -178 -74 -186 0 -5 -7 -23 -15
-40 -40 -88 -255 -659 -255 -679 0 -6 -6 -24 -14 -41 -35 -80 -196 -559 -196
-584 0 -7 -4 -21 -9 -31 -5 -9 -28 -78 -51 -152 -23 -74 -48 -153 -55 -175 -7
-22 -23 -76 -35 -120 -21 -77 -34 -122 -66 -230 -55 -187 -107 -383 -150 -560
-8 -33 -23 -96 -35 -140 -50 -195 -57 -226 -98 -415 -12 -52 -28 -124 -36
-160 -14 -62 -37 -165 -72 -330 -8 -41 -21 -105 -27 -142 -6 -37 -15 -71 -21
-76 -5 -5 -104 -57 -220 -116 -330 -167 -553 -293 -835 -471 -41 -26 -95 -59
-119 -74 -24 -14 -62 -40 -85 -57 -22 -17 -97 -69 -166 -116 -111 -75 -473
-348 -525 -395 -11 -10 -45 -38 -75 -63 -219 -180 -598 -542 -807 -772 l-61
-68 -885 0 c-766 0 -895 -2 -963 -16 -510 -102 -889 -521 -933 -1031 -9 -99 0
-297 15 -345 2 -9 9 -42 15 -75 17 -98 38 -215 49 -278 6 -33 17 -96 25 -140
8 -44 19 -107 25 -140 6 -33 17 -96 25 -140 8 -44 19 -107 25 -140 6 -33 17
-96 25 -140 8 -44 19 -107 25 -140 6 -33 17 -96 25 -140 8 -44 19 -107 25
-140 6 -33 17 -96 25 -140 8 -44 19 -107 25 -140 6 -33 17 -96 25 -140 8 -44
19 -107 25 -140 6 -33 17 -96 25 -140 8 -44 19 -107 25 -140 6 -33 17 -96 25
-140 8 -44 19 -107 25 -140 6 -33 17 -96 25 -140 8 -44 19 -107 25 -140 6 -33
17 -96 25 -140 8 -44 19 -107 25 -140 6 -33 17 -96 25 -140 8 -44 19 -107 25
-140 6 -33 17 -96 25 -140 8 -44 19 -107 25 -140 6 -33 17 -96 25 -140 8 -44
19 -107 25 -140 6 -33 17 -96 25 -140 8 -44 19 -107 25 -140 6 -33 17 -96 25
-140 8 -44 19 -107 25 -140 6 -33 17 -96 25 -140 8 -44 19 -107 25 -140 6 -33
17 -96 25 -140 8 -44 19 -107 25 -140 6 -33 17 -96 25 -140 8 -44 19 -107 25
-140 6 -33 17 -96 25 -140 8 -44 19 -107 25 -140 6 -33 17 -96 25 -140 8 -44
19 -107 25 -140 6 -33 17 -96 25 -140 18 -102 63 -353 76 -425 6 -30 16 -91
24 -135 8 -44 19 -107 25 -140 6 -33 17 -96 25 -140 8 -44 25 -141 39 -215 13
-74 36 -202 51 -285 15 -82 37 -208 50 -280 13 -71 35 -197 50 -280 15 -82 37
-208 50 -280 13 -71 35 -197 50 -280 15 -82 37 -208 50 -280 13 -71 35 -197
50 -280 15 -82 37 -208 50 -280 13 -71 35 -197 50 -280 15 -82 37 -208 50
-280 13 -71 35 -197 50 -280 15 -82 37 -208 50 -280 13 -71 35 -197 50 -280
15 -82 37 -208 50 -280 13 -71 35 -197 50 -280 15 -82 37 -208 50 -280 13 -71
35 -197 50 -280 15 -82 37 -208 50 -280 13 -71 35 -197 50 -280 15 -82 37
-208 50 -280 13 -71 35 -197 50 -280 15 -82 37 -208 50 -280 13 -71 35 -197
50 -280 15 -82 37 -208 50 -280 13 -71 35 -197 50 -280 15 -82 37 -208 50
-280 31 -173 69 -389 100 -560 90 -510 90 -510 155 -642 129 -262 348 -439
630 -509 l95 -24 10436 0 10436 0 77 25 c151 49 278 156 347 291 38 72 57 138
84 289 18 97 55 292 85 445 10 52 26 136 35 185 9 50 20 110 25 135 5 25 23
119 40 210 17 91 40 208 50 260 10 52 26 136 35 185 9 50 20 110 25 135 5 25
23 119 40 210 17 91 40 208 50 260 18 93 52 272 105 555 14 77 35 183 45 235
10 52 33 169 50 260 68 366 124 656 150 790 10 52 26 136 35 185 9 50 20 110
25 135 5 25 23 119 40 210 17 91 40 208 50 260 10 52 26 136 35 185 9 50 20
110 25 135 5 25 23 119 40 210 17 91 40 208 50 260 10 52 26 136 35 185 9 50
20 110 25 135 5 25 23 119 40 210 17 91 40 208 50 260 10 52 26 136 35 185 9
50 20 110 25 135 5 25 23 119 40 210 17 91 40 208 50 260 10 52 26 136 35 185
9 50 20 110 25 135 5 25 23 119 40 210 17 91 40 208 50 260 10 52 26 136 35
185 9 50 20 110 25 135 5 25 23 119 40 210 17 91 40 208 50 260 10 52 26 136
35 185 9 50 20 110 25 135 5 25 23 119 40 210 17 91 40 208 50 260 10 52 26
136 35 185 46 250 68 338 96 396 42 85 67 206 103 504 8 61 16 121 20 135 3
14 10 77 15 140 6 63 19 160 30 215 11 55 34 174 51 265 17 91 35 185 40 210
5 25 16 86 25 135 9 50 25 133 35 185 10 52 33 169 50 260 17 91 35 185 40
210 5 25 16 86 25 135 9 50 25 133 35 185 10 52 33 169 50 260 17 91 35 185
40 210 5 25 16 86 25 135 9 50 25 133 35 185 10 52 33 169 50 260 17 91 35
185 40 210 5 25 16 86 25 135 18 97 55 292 85 445 10 52 26 136 35 185 9 50
20 110 25 135 5 25 23 119 40 210 17 91 40 208 50 260 10 52 26 136 35 185 9
50 20 110 26 135 22 106 39 240 39 305 0 85 -23 235 -51 330 -105 352 -396
649 -748 764 -155 51 -163 51 -1085 51 l-862 0 -34 42 c-19 24 -116 126 -215
227 -491 502 -990 901 -1642 1312 -261 165 -775 445 -795 433 -7 -4 -9 -3 -5
1 8 9 -158 95 -325 169 -49 22 -88 42 -89 45 0 3 -3 26 -5 51 -3 25 -10 63
-16 85 -11 41 -31 133 -49 220 -5 28 -16 77 -24 110 -8 33 -23 105 -35 160
-11 55 -25 114 -30 130 -4 17 -14 56 -20 88 -6 31 -16 55 -21 52 -5 -3 -6 0
-3 8 5 13 0 37 -41 197 -8 30 -20 82 -28 115 -26 106 -47 189 -56 220 -19 63
-67 232 -127 450 -26 93 -86 289 -109 360 -8 22 -39 121 -70 220 -94 295 -201
606 -213 615 -4 3 -8 16 -10 30 -3 30 -71 221 -83 235 -5 5 -9 15 -9 22 0 11
-47 138 -85 228 -7 17 -29 75 -50 130 -21 55 -44 114 -51 130 -7 17 -31 75
-54 130 -22 55 -45 109 -50 120 -5 11 -37 85 -71 165 -119 279 -171 390 -182
390 -4 0 -6 4 -3 9 7 10 -52 134 -65 139 -5 2 -7 7 -4 12 8 13 -216 463 -423
850 -104 193 -319 568 -384 668 -10 15 -25 40 -34 57 -105 187 -581 886 -718
1056 -7 8 -32 42 -56 74 -24 32 -49 66 -56 74 -7 9 -53 66 -101 126 -86 108
-163 201 -214 260 -15 17 -48 55 -74 85 -319 367 -674 719 -1013 1006 -219
184 -531 417 -737 549 -49 31 -102 66 -117 76 -15 10 -30 19 -33 19 -3 0 -19
10 -34 21 -17 13 -34 18 -42 14 -7 -5 -10 -4 -5 3 9 15 -391 232 -584 316 -36
15 -79 34 -97 42 -66 30 -178 74 -188 74 -5 0 -22 6 -36 14 -58 30 -408 141
-554 175 -49 12 -106 26 -125 31 -134 36 -350 67 -700 100 -97 9 -513 12 -570
3z"/>
<path d="M24230 32330 c8 -5 20 -10 25 -10 6 0 3 5 -5 10 -8 5 -19 10 -25 10
-5 0 -3 -5 5 -10z"/>
<path d="M25060 31936 c0 -2 8 -10 18 -17 15 -13 16 -12 3 4 -13 16 -21 21
-21 13z"/>
<path d="M25200 31826 c0 -2 8 -10 18 -17 15 -13 16 -12 3 4 -13 16 -21 21
-21 13z"/>
<path d="M11229 31583 c-13 -16 -12 -17 4 -4 9 7 17 15 17 17 0 8 -8 3 -21
-13z"/>
<path d="M25825 31400 c10 -11 20 -20 23 -20 3 0 -3 9 -13 20 -10 11 -20 20
-23 20 -3 0 3 -9 13 -20z"/>
<path d="M25970 31286 c0 -2 8 -10 18 -17 15 -13 16 -12 3 4 -13 16 -21 21
-21 13z"/>
<path d="M26260 31067 c0 -3 12 -12 26 -22 15 -9 23 -12 20 -6 -7 11 -46 35
-46 28z"/>
<path d="M26710 30776 c0 -2 8 -10 18 -17 15 -13 16 -12 3 4 -13 16 -21 21
-21 13z"/>
<path d="M26840 30666 c0 -2 8 -10 18 -17 15 -13 16 -12 3 4 -13 16 -21 21
-21 13z"/>
<path d="M26900 30596 c0 -2 8 -10 18 -17 15 -13 16 -12 3 4 -13 16 -21 21
-21 13z"/>
<path d="M26960 30526 c0 -2 8 -10 18 -17 15 -13 16 -12 3 4 -13 16 -21 21
-21 13z"/>
<path d="M27020 30456 c0 -2 8 -10 18 -17 15 -13 16 -12 3 4 -13 16 -21 21
-21 13z"/>
<path d="M27080 30386 c0 -2 8 -10 18 -17 15 -13 16 -12 3 4 -13 16 -21 21
-21 13z"/>
<path d="M27180 30275 c13 -14 26 -25 28 -25 3 0 -5 11 -18 25 -13 14 -26 25
-28 25 -3 0 5 -11 18 -25z"/>
<path d="M27360 30095 c47 -47 87 -85 90 -85 2 0 -33 38 -80 85 -47 47 -87 85
-90 85 -2 0 33 -38 80 -85z"/>
<path d="M27630 29827 c0 -2 15 -16 33 -33 l32 -29 -29 33 c-28 30 -36 37 -36
29z"/>
<path d="M27785 29670 c33 -33 62 -60 64 -60 3 0 -21 27 -54 60 -33 33 -62 60
-64 60 -3 0 21 -27 54 -60z"/>
<path d="M28160 29238 c41 -45 50 -53 50 -45 0 2 -21 23 -47 47 l-48 45 45
-47z"/>
<path d="M28390 29007 c0 -1 35 -36 78 -77 l77 -75 -75 78 c-69 71 -80 82 -80
74z"/>
<path d="M28710 28685 c13 -14 26 -25 28 -25 3 0 -5 11 -18 25 -13 14 -26 25
-28 25 -3 0 5 -11 18 -25z"/>
<path d="M28825 28570 c21 -22 41 -40 44 -40 3 0 -13 18 -34 40 -21 22 -41 40
-44 40 -3 0 13 -18 34 -40z"/>
<path d="M28950 28446 c0 -2 8 -10 18 -17 15 -13 16 -12 3 4 -13 16 -21 21
-21 13z"/>
<path d="M28990 28396 c0 -2 8 -10 18 -17 15 -13 16 -12 3 4 -13 16 -21 21
-21 13z"/>
<path d="M29030 28346 c0 -2 8 -10 18 -17 15 -13 16 -12 3 4 -13 16 -21 21
-21 13z"/>
<path d="M9881 28304 c0 -11 3 -14 6 -6 3 7 2 16 -1 19 -3 4 -6 -2 -5 -13z"/>
<path d="M29080 28286 c0 -2 8 -10 18 -17 15 -13 16 -12 3 4 -13 16 -21 21
-21 13z"/>
<path d="M29160 28186 c0 -2 8 -10 18 -17 15 -13 16 -12 3 4 -13 16 -21 21
-21 13z"/>
<path d="M29265 28060 c10 -11 20 -20 23 -20 3 0 -3 9 -13 20 -10 11 -20 20
-23 20 -3 0 3 -9 13 -20z"/>
<path d="M29330 27986 c0 -2 8 -10 18 -17 15 -13 16 -12 3 4 -13 16 -21 21
-21 13z"/>
<path d="M29400 27906 c0 -2 8 -10 18 -17 15 -13 16 -12 3 4 -13 16 -21 21
-21 13z"/>
<path d="M29485 27810 c10 -11 20 -20 23 -20 3 0 -3 9 -13 20 -10 11 -20 20
-23 20 -3 0 3 -9 13 -20z"/>
<path d="M29555 27730 c10 -11 20 -20 23 -20 3 0 -3 9 -13 20 -10 11 -20 20
-23 20 -3 0 3 -9 13 -20z"/>
<path d="M29740 27466 c0 -2 8 -10 18 -17 15 -13 16 -12 3 4 -13 16 -21 21
-21 13z"/>
<path d="M30010 27146 c0 -2 8 -10 18 -17 15 -13 16 -12 3 4 -13 16 -21 21
-21 13z"/>
<path d="M30075 27070 c10 -11 20 -20 23 -20 3 0 -3 9 -13 20 -10 11 -20 20
-23 20 -3 0 3 -9 13 -20z"/>
<path d="M30110 27026 c0 -2 8 -10 18 -17 15 -13 16 -12 3 4 -13 16 -21 21
-21 13z"/>
<path d="M30160 26966 c0 -2 8 -10 18 -17 15 -13 16 -12 3 4 -13 16 -21 21
-21 13z"/>
<path d="M30316 26757 c3 -10 9 -15 12 -12 3 3 0 11 -7 18 -10 9 -11 8 -5 -6z"/>
<path d="M30570 26366 c0 -2 8 -10 18 -17 15 -13 16 -12 3 4 -13 16 -21 21
-21 13z"/>
<path d="M30650 26275 c13 -14 26 -25 28 -25 3 0 -5 11 -18 25 -13 14 -26 25
-28 25 -3 0 5 -11 18 -25z"/>
<path d="M9121 26014 c0 -11 3 -14 6 -6 3 7 2 16 -1 19 -3 4 -6 -2 -5 -13z"/>
<path d="M8981 25684 c0 -11 3 -14 6 -6 3 7 2 16 -1 19 -3 4 -6 -2 -5 -13z"/>
<path d="M31016 25687 c3 -10 9 -15 12 -12 3 3 0 11 -7 18 -10 9 -11 8 -5 -6z"/>
<path d="M8901 25334 c0 -11 3 -14 6 -6 3 7 2 16 -1 19 -3 4 -6 -2 -5 -13z"/>
<path d="M8881 25244 c0 -11 3 -14 6 -6 3 7 2 16 -1 19 -3 4 -6 -2 -5 -13z"/>
<path d="M7811 25194 c0 -11 3 -14 6 -6 3 7 2 16 -1 19 -3 4 -6 -2 -5 -13z"/>
<path d="M7218 25193 c7 -3 16 -2 19 1 4 3 -2 6 -13 5 -11 0 -14 -3 -6 -6z"/>
<path d="M7138 25183 c7 -3 16 -2 19 1 4 3 -2 6 -13 5 -11 0 -14 -3 -6 -6z"/>
<path d="M6688 25153 c7 -3 16 -2 19 1 4 3 -2 6 -13 5 -11 0 -14 -3 -6 -6z"/>
<path d="M6628 25143 c7 -3 16 -2 19 1 4 3 -2 6 -13 5 -11 0 -14 -3 -6 -6z"/>
<path d="M6578 25133 c7 -3 16 -2 19 1 4 3 -2 6 -13 5 -11 0 -14 -3 -6 -6z"/>
<path d="M6518 25123 c7 -3 16 -2 19 1 4 3 -2 6 -13 5 -11 0 -14 -3 -6 -6z"/>
<path d="M6298 25083 c7 -3 16 -2 19 1 4 3 -2 6 -13 5 -11 0 -14 -3 -6 -6z"/>
<path d="M7801 25074 c0 -11 3 -14 6 -6 3 7 2 16 -1 19 -3 4 -6 -2 -5 -13z"/>
<path d="M31330 25065 c13 -14 26 -25 28 -25 3 0 -5 11 -18 25 -13 14 -26 25
-28 25 -3 0 5 -11 18 -25z"/>
<path d="M6188 25063 c7 -3 16 -2 19 1 4 3 -2 6 -13 5 -11 0 -14 -3 -6 -6z"/>
<path d="M5968 25023 c7 -3 16 -2 19 1 4 3 -2 6 -13 5 -11 0 -14 -3 -6 -6z"/>
<path d="M7792 24940 c0 -14 2 -19 5 -12 2 6 2 18 0 25 -3 6 -5 1 -5 -13z"/>
<path d="M5478 24903 c7 -3 16 -2 19 1 4 3 -2 6 -13 5 -11 0 -14 -3 -6 -6z"/>
<path d="M7781 24834 c0 -11 3 -14 6 -6 3 7 2 16 -1 19 -3 4 -6 -2 -5 -13z"/>
<path d="M7772 24705 c0 -16 2 -22 5 -12 2 9 2 23 0 30 -3 6 -5 -1 -5 -18z"/>
<path d="M7762 24580 c0 -19 2 -27 5 -17 2 9 2 25 0 35 -3 9 -5 1 -5 -18z"/>
<path d="M4364 24538 l-29 -33 33 29 c30 28 37 36 29 36 -2 0 -16 -15 -33 -32z"/>
<path d="M7752 24460 c0 -14 2 -19 5 -12 2 6 2 18 0 25 -3 6 -5 1 -5 -13z"/>
<path d="M7742 24350 c0 -14 2 -19 5 -12 2 6 2 18 0 25 -3 6 -5 1 -5 -13z"/>
<path d="M4065 24340 c-3 -6 1 -7 9 -4 18 7 21 14 7 14 -6 0 -13 -4 -16 -10z"/>
<path d="M7731 24234 c0 -11 3 -14 6 -6 3 7 2 16 -1 19 -3 4 -6 -2 -5 -13z"/>
<path d="M3719 24103 c-13 -16 -12 -17 4 -4 9 7 17 15 17 17 0 8 -8 3 -21 -13z"/>
<path d="M7721 24104 c0 -11 3 -14 6 -6 3 7 2 16 -1 19 -3 4 -6 -2 -5 -13z"/>
<path d="M7711 23984 c0 -11 3 -14 6 -6 3 7 2 16 -1 19 -3 4 -6 -2 -5 -13z"/>
<path d="M7701 23864 c0 -11 3 -14 6 -6 3 7 2 16 -1 19 -3 4 -6 -2 -5 -13z"/>
<path d="M7692 23740 c0 -14 2 -19 5 -12 2 6 2 18 0 25 -3 6 -5 1 -5 -13z"/>
<path d="M8119 23643 c-13 -16 -12 -17 4 -4 9 7 17 15 17 17 0 8 -8 3 -21 -13z"/>
<path d="M7681 23624 c0 -11 3 -14 6 -6 3 7 2 16 -1 19 -3 4 -6 -2 -5 -13z"/>
<path d="M8069 23593 l-24 -28 28 24 c15 14 27 26 27 28 0 8 -8 1 -31 -24z"/>
<path d="M7671 23504 c0 -11 3 -14 6 -6 3 7 2 16 -1 19 -3 4 -6 -2 -5 -13z"/>
<path d="M32176 23507 c3 -10 9 -15 12 -12 3 3 0 11 -7 18 -10 9 -11 8 -5 -6z"/>
<path d="M7662 23370 c0 -19 2 -27 5 -17 2 9 2 25 0 35 -3 9 -5 1 -5 -18z"/>
<path d="M7652 23260 c0 -14 2 -19 5 -12 2 6 2 18 0 25 -3 6 -5 1 -5 -13z"/>
<path d="M7659 23183 c-13 -16 -12 -17 4 -4 9 7 17 15 17 17 0 8 -8 3 -21 -13z"/>
<path d="M2585 23108 l-50 -53 53 50 c48 46 57 55 49 55 -1 0 -25 -24 -52 -52z"/>
<path d="M2395 22918 l-90 -93 93 90 c50 49 92 91 92 92 0 8 -12 -4 -95 -89z"/>
<path d="M1904 22438 l-19 -23 23 19 c12 11 22 21 22 23 0 8 -8 2 -26 -19z"/>
<path d="M1824 22368 l-19 -23 23 19 c12 11 22 21 22 23 0 8 -8 2 -26 -19z"/>
<path d="M1739 22293 c-13 -16 -12 -17 4 -4 16 13 21 21 13 21 -2 0 -10 -8
-17 -17z"/>
<path d="M1659 22223 l-24 -28 28 24 c15 14 27 26 27 28 0 8 -8 1 -31 -24z"/>
<path d="M1574 22148 l-19 -23 23 19 c12 11 22 21 22 23 0 8 -8 2 -26 -19z"/>
<path d="M32776 22127 c3 -10 9 -15 12 -12 3 3 0 11 -7 18 -10 9 -11 8 -5 -6z"/>
<path d="M1159 21623 l-24 -28 28 24 c15 14 27 26 27 28 0 8 -8 1 -31 -24z"/>
<path d="M32866 7903 c-6 -14 -5 -15 5 -6 7 7 10 15 7 18 -3 3 -9 -2 -12 -12z"/>
<path d="M32756 7663 c-6 -14 -5 -15 5 -6 7 7 10 15 7 18 -3 3 -9 -2 -12 -12z"/>
<path d="M32471 6854 c0 -11 3 -14 6 -6 3 7 2 16 -1 19 -3 4 -6 -2 -5 -13z"/>
<path d="M32311 6244 c0 -11 3 -14 6 -6 3 7 2 16 -1 19 -3 4 -6 -2 -5 -13z"/>
<path d="M31871 4974 c0 -11 3 -14 6 -6 3 7 2 16 -1 19 -3 4 -6 -2 -5 -13z"/>
<path d="M31611 3064 c0 -11 3 -14 6 -6 3 7 2 16 -1 19 -3 4 -6 -2 -5 -13z"/>
<path d="M31511 2694 c0 -11 3 -14 6 -6 3 7 2 16 -1 19 -3 4 -6 -2 -5 -13z"/>
<path d="M31446 2433 c-6 -14 -5 -15 5 -6 7 7 10 15 7 18 -3 3 -9 -2 -12 -12z"/>
<path d="M31406 2353 c-6 -14 -5 -15 5 -6 7 7 10 15 7 18 -3 3 -9 -2 -12 -12z"/>
<path d="M430 2331 c0 -6 4 -13 10 -16 6 -3 7 1 4 9 -7 18 -14 21 -14 7z"/>
<path d="M510 2121 c0 -6 4 -13 10 -16 6 -3 7 1 4 9 -7 18 -14 21 -14 7z"/>
<path d="M31099 1803 c-13 -16 -12 -17 4 -4 16 13 21 21 13 21 -2 0 -10 -8
-17 -17z"/>
<path d="M31049 1743 l-24 -28 28 24 c15 14 27 26 27 28 0 8 -8 1 -31 -24z"/>
<path d="M30989 1673 l-24 -28 28 24 c15 14 27 26 27 28 0 8 -8 1 -31 -24z"/>
<path d="M790 1666 c0 -2 8 -10 18 -17 15 -13 16 -12 3 4 -13 16 -21 21 -21
13z"/>
<path d="M30924 1598 l-19 -23 23 19 c12 11 22 21 22 23 0 8 -8 2 -26 -19z"/>
<path d="M30864 1528 l-19 -23 23 19 c12 11 22 21 22 23 0 8 -8 2 -26 -19z"/>
<path d="M30785 1438 l-40 -43 43 40 c39 36 47 45 39 45 -2 0 -21 -19 -42 -42z"/>
<path d="M30625 1268 l-40 -43 43 40 c39 36 47 45 39 45 -2 0 -21 -19 -42 -42z"/>
<path d="M1160 1176 c0 -2 8 -10 18 -17 15 -13 16 -12 3 4 -13 16 -21 21 -21
13z"/>
<path d="M1245 1100 c10 -11 20 -20 23 -20 3 0 -3 9 -13 20 -10 11 -20 20 -23
20 -3 0 3 -9 13 -20z"/>
<path d="M1330 1025 c13 -14 26 -25 28 -25 3 0 -5 11 -18 25 -13 14 -26 25
-28 25 -3 0 5 -11 18 -25z"/>
<path d="M30210 863 l-135 -138 138 135 c75 74 137 136 137 137 0 8 -15 -7
-140 -134z"/>
<path d="M1415 950 c10 -11 20 -20 23 -20 3 0 -3 9 -13 20 -10 11 -20 20 -23
20 -3 0 3 -9 13 -20z"/>
<path d="M1510 865 c13 -14 26 -25 28 -25 3 0 -5 11 -18 25 -13 14 -26 25 -28
25 -3 0 5 -11 18 -25z"/>
<path d="M1595 790 c10 -11 20 -20 23 -20 3 0 -3 9 -13 20 -10 11 -20 20 -23
20 -3 0 3 -9 13 -20z"/>
<path d="M1685 710 c10 -11 20 -20 23 -20 3 0 -3 9 -13 20 -10 11 -20 20 -23
20 -3 0 3 -9 13 -20z"/>
<path d="M29944 588 l-19 -23 23 19 c12 11 22 21 22 23 0 8 -8 2 -26 -19z"/>
<path d="M29864 518 l-19 -23 23 19 c12 11 22 21 22 23 0 8 -8 2 -26 -19z"/>
<path d="M29784 448 l-19 -23 23 19 c12 11 22 21 22 23 0 8 -8 2 -26 -19z"/>
<path d="M29704 378 l-19 -23 23 19 c12 11 22 21 22 23 0 8 -8 2 -26 -19z"/>
<path d="M29629 313 c-13 -16 -12 -17 4 -4 9 7 17 15 17 17 0 8 -8 3 -21 -13z"/>
<path d="M29549 243 l-24 -28 30 25 c17 14 32 26 34 28 2 1 0 2 -6 2 -5 0 -20
-12 -34 -27z"/>
<path d="M29474 178 l-19 -23 23 19 c12 11 22 21 22 23 0 8 -8 2 -26 -19z"/>
<path d="M29339 73 c-13 -16 -12 -17 4 -4 9 7 17 15 17 17 0 8 -8 3 -21 -13z"/>
</g>
</svg>
